<?xml version="1.0" encoding="UTF-8" standalone="no"?>
<!DOCTYPE svg PUBLIC "-//W3C//DTD SVG 1.0//EN"
 "http://www.w3.org/TR/2001/REC-SVG-20010904/DTD/svg10.dtd" [
 <!ATTLIST svg xmlns:xlink CDATA #FIXED "http://www.w3.org/1999/xlink">
]>
<!-- Generated by Graphviz version 2.12 (Wed Mar  7 21:41:22 UTC 2007)
     For user: (jcentel) Jesús Centella -->
<!-- Title: G Pages: 1 -->
<svg width="3.07in" height="1.35in"
 xmlns="http://www.w3.org/2000/svg" xmlns:xlink="http://www.w3.org/1999/xlink">
<g id="graph0" class="graph" transform="scale(1.33333 1.33333) rotate(0) translate(4 94)">
<title>G</title>
<polygon style="fill:white;stroke:white;" points="-4,4 -4,-94 218,-94 218,4 -4,4"/>
<!-- data -->
<g id="node1" class="node"><title>data</title>
<polygon style="fill:gray;stroke:blue;" points="214,-74.5 154,-74.5 154,-15.5 214,-15.5 214,-74.5"/>
<text text-anchor="middle" x="184" y="-57" style="font-family:Nimbus Roman No9 L;font-weight:regular;font-size:11.34pt;">Datos</text>
<text text-anchor="middle" x="184" y="-40" style="font-family:Nimbus Roman No9 L;font-weight:regular;font-size:11.34pt;">reales</text>
<text text-anchor="middle" x="184" y="-23" style="font-family:Nimbus Roman No9 L;font-weight:regular;font-size:11.34pt;">en disco</text>
</g>
<!-- linkA -->
<g id="node2" class="node"><title>linkA</title>
<ellipse style="fill:greenyellow;stroke:blue;" cx="59" cy="-72" rx="59.1777" ry="18"/>
<text text-anchor="middle" x="59" y="-67" style="font-family:Nimbus Roman No9 L;font-weight:regular;font-size:11.34pt;">&quot;Enlace 1.txt&quot;</text>
</g>
<!-- linkA&#45;&gt;data -->
<g id="edge2" class="edge"><title>linkA&#45;&gt;data</title>
<path style="fill:none;stroke:black;" d="M107,-62C119,-59 132,-56 144,-54"/>
<polygon style="fill:black;stroke:black;" points="144.881,-57.3933 154,-52 143.508,-50.5292 144.881,-57.3933"/>
</g>
<!-- linkB -->
<g id="node3" class="node"><title>linkB</title>
<ellipse style="fill:burlywood;stroke:blue;" cx="59" cy="-18" rx="58.1762" ry="18"/>
<text text-anchor="middle" x="59" y="-13" style="font-family:Nimbus Roman No9 L;font-weight:regular;font-size:11.34pt;">&quot;Enlace 2.txt&quot;</text>
</g>
<!-- linkB&#45;&gt;data -->
<g id="edge4" class="edge"><title>linkB&#45;&gt;data</title>
<path style="fill:none;stroke:black;" d="M107,-28C119,-31 132,-34 144,-36"/>
<polygon style="fill:black;stroke:black;" points="143.508,-39.4708 154,-38 144.881,-32.6067 143.508,-39.4708"/>
</g>
</g>
</svg>
